Coordinates
version=1
nRows=12
nColumns=34
inDegrees=yes

Units are S.I. units (second, meters, Newtons, ...)
Angles are in degrees.

endheader
time	pelvis_tilt	pelvis_list	pelvis_rotation	pelvis_tx	pelvis_ty	pelvis_tz	hip_flexion_r	hip_adduction_r	hip_rotation_r	knee_angle_r	ankle_angle_r	subtalar_angle_r	mtp_angle_r	hip_flexion_l	hip_adduction_l	hip_rotation_l	knee_angle_l	socket_flexion	socket_adduction	socket_rotation	socket_tx	socket_ty	socket_tz	pros_ankle_rx	pros_ankle_ry	pros_ankle_rz	pros_ankle_tx	pros_ankle_ty	pros_ankle_tz	foot_flex	lumbar_extension	lumbar_bending	lumbar_rotation
      0.00000000	     -4.95815708	     -8.66900333	     -7.11081778	     -0.75844586	      1.03784098	      0.32385970	    -17.06655716	      9.65233806	     -4.29941924	     -3.42300279	     -0.49033912	     26.02550152	     36.72421709	     23.07280860	     -8.89580016	      0.61726950	      1.01571532	      0.23925071	      0.24697309	     -2.86711573	     -0.01483957	     -0.00171678	     -0.00823411	      0.00000000	      0.00000000	      0.00000000	      0.00000000	      0.00000000	      0.00000000	      0.24773067	    -14.83219914	      3.78453429	      8.09404272
      0.00416667	     -4.91598386	     -8.70425245	     -7.19294745	     -0.75322442	      1.03680032	      0.32411447	    -17.30990321	      9.60177390	     -4.23577751	     -3.61347002	     -0.52469220	     26.04803668	     36.73747335	     23.12749422	     -8.83539514	      0.67307333	      0.91384299	      0.33087489	      0.22658899	     -2.90816570	     -0.01425802	     -0.00196143	     -0.00769900	      0.00000000	      0.00000000	      0.00000000	      0.00000000	      0.00000000	      0.00000000	     -0.09867665	    -14.79568700	      3.75382723	      8.10323373
      0.00833333	     -4.88669535	     -8.74398081	     -7.29067495	     -0.74780808	      1.03573333	      0.32433290	    -17.53763868	      9.55015298	     -4.15704921	     -3.82289804	     -0.56069479	     26.08341111	     36.76177046	     23.18977745	     -8.76774780	      0.73201209	      0.80595725	      0.42717483	      0.18740800	     -2.95230145	     -0.01367376	     -0.00224954	     -0.00704814	      0.00000000	      0.00000000	      0.00000000	      0.00000000	      0.00000000	      0.00000000	     -0.52793039	    -14.78604763	      3.71587606	      8.13552233
      0.01250000	     -4.70817043	     -8.70763527	     -7.46018526	     -0.74226271	      1.03498094	      0.32462007	    -17.79922092	      9.33923049	     -4.20384857	     -4.26020148	     -0.47193712	     26.48337640	     37.33680161	     22.99120036	     -8.55162357	      0.55645491	      0.74093523	      0.47785260	      0.05303564	     -2.90334706	     -0.01368468	     -0.00249696	     -0.00547227	      0.00000000	      0.00000000	      0.00000000	      0.00000000	      0.00000000	      0.00000000	     -1.02358253	    -15.12595241	      3.48516282	      8.65517018
      0.01666667	     -4.68769185	     -8.74816942	     -7.55827544	     -0.73646046	      1.03381288	      0.32488859	    -18.01978325	      9.28439120	     -4.10917844	     -4.50175202	     -0.53815513	     26.53065925	     37.39032296	     23.05746397	     -8.48802418	      0.60483316	      0.60047938	      0.60664914	      0.02046404	     -2.95113335	     -0.01313273	     -0.00296928	     -0.00479420	      0.00000000	      0.00000000	      0.00000000	      0.00000000	      0.00000000	      0.00000000	     -1.46258039	    -15.08319598	      3.43882107	      8.65101312
      0.02083333	     -4.68837434	     -8.78220945	     -7.67516586	     -0.73057620	      1.03264360	      0.32510886	    -18.18489668	      9.20828563	     -4.01588502	     -4.79825482	     -0.61226726	     26.61228738	     37.50829699	     23.13003035	     -8.41961813	      0.65054083	      0.45098188	      0.74207339	     -0.06000540	     -2.98252540	     -0.01265675	     -0.00343860	     -0.00411868	      0.00000000	      0.00000000	      0.00000000	      0.00000000	      0.00000000	      0.00000000	     -1.96999192	    -15.12153756	      3.37903879	      8.71839900
      0.02500000	     -4.65179260	     -8.81413154	     -7.79175385	     -0.72450572	      1.03147279	      0.32547229	    -18.41050896	      9.13172965	     -3.93941334	     -5.07520527	     -0.67061289	     26.65514391	     37.56892339	     23.17525277	     -8.37334901	      0.70907070	      0.26825138	      0.91122960	     -0.08050512	     -3.02057725	     -0.01195276	     -0.00406590	     -0.00346946	      0.00000000	      0.00000000	      0.00000000	      0.00000000	      0.00000000	      0.00000000	     -2.35563753	    -15.05872724	      3.32774980	      8.75530201
      0.02916667	     -4.64414642	     -8.84008028	     -7.91138674	     -0.71830852	      1.03027052	      0.32575815	    -18.60822531	      9.04211712	     -3.86475292	     -5.34203267	     -0.73317056	     26.69323128	     37.62160966	     23.20620378	     -8.34578085	      0.78184031	      0.08506154	      1.08299145	     -0.12357758	     -3.03803846	     -0.01154566	     -0.00475485	     -0.00315642	      0.00000000	      0.00000000	      0.00000000	      0.00000000	      0.00000000	      0.00000000	     -2.74233030	    -15.02152026	      3.27390057	      8.79203587
      0.03333333	     -4.60202639	     -8.87578718	     -8.01526462	     -0.71216719	      1.02914905	      0.32606662	    -18.79301401	      8.96665693	     -3.75881753	     -5.70117552	     -0.82860862	     26.75025387	     37.69888787	     23.24633129	     -8.29996220	      0.83006492	     -0.13484204	      1.28670373	     -0.16942798	     -3.08997609	     -0.01081606	     -0.00553712	     -0.00256607	      0.00000000	      0.00000000	      0.00000000	      0.00000000	      0.00000000	      0.00000000	     -3.25762589	    -14.99471080	      3.19026076	      8.85287826
      0.03750000	     -4.59295615	     -8.89867188	     -8.13309954	     -0.70587714	      1.02799476	      0.32633355	    -18.94967909	      8.86797924	     -3.67294340	     -6.03895215	     -0.92577083	     26.79936330	     37.77417919	     23.26757559	     -8.27065427	      0.89036754	     -0.35158191	      1.48952648	     -0.22100064	     -3.11460289	     -0.01032263	     -0.00639744	     -0.00221521	      0.00000000	      0.00000000	      0.00000000	      0.00000000	      0.00000000	      0.00000000	     -3.66835333	    -14.98782057	      3.11492864	      8.91354002
      0.04166667	     -4.54908297	     -8.93985734	     -8.24546150	     -0.69974552	      1.02695232	      0.32662028	    -19.05370461	      8.78764116	     -3.56611569	     -6.53599671	     -1.08897852	     26.88380688	     37.91442082	     23.30645789	     -8.22353307	      0.89635083	     -0.60872845	      1.72706433	     -0.28347046	     -3.18094234	     -0.00948380	     -0.00733239	     -0.00148060	      0.00000000	      0.00000000	      0.00000000	      0.00000000	      0.00000000	      0.00000000	     -4.20091013	    -15.02684494	      2.98711597	      9.02856302
      0.04583333	     -4.56551315	     -8.81164037	     -8.64646949	     -0.69358440	      1.02601089	      0.32726956	    -18.69369478	      8.34153834	     -4.03759392	     -7.73436562	     -1.08228679	     28.06009738	     40.17375265	     23.38431278	     -8.02985056	      0.16010148	     -0.91611550	      1.97590716	     -0.51060691	     -2.72023518	     -0.00815099	     -0.00805442	      0.00034954	      0.00000000	      0.00000000	      0.00000000	      0.00000000	      0.00000000	      0.00000000	     -4.54974886	    -15.14651639	      2.56618251	     10.26589953
